<mxfile host="app.diagrams.net" modified="2021-09-09T13:14:52.464Z" agent="5.0 (Windows NT 10.0; Win64; x64) AppleWebKit/537.36 (KHTML, like Gecko) Chrome/93.0.4577.63 Safari/537.36" etag="M2bsIW8zbOWjgwmL27SK" version="15.0.3" type="github" pages="6">
  <diagram id="6Z2epARSxKz0ps8wFmp6" name="Page-1">
    <mxGraphModel dx="782" dy="478" grid="1" gridSize="10" guides="1" tooltips="1" connect="1" arrows="1" fold="1" page="1" pageScale="1" pageWidth="827" pageHeight="1169" math="0" shadow="0">
      <root>
        <mxCell id="0" />
        <mxCell id="1" parent="0" />
        <mxCell id="q6ug8Q1VMTqLKY95Yc3w-11" style="edgeStyle=orthogonalEdgeStyle;rounded=0;orthogonalLoop=1;jettySize=auto;html=1;entryX=0.5;entryY=0;entryDx=0;entryDy=0;" parent="1" source="q6ug8Q1VMTqLKY95Yc3w-7" target="q6ug8Q1VMTqLKY95Yc3w-8" edge="1">
          <mxGeometry relative="1" as="geometry" />
        </mxCell>
        <mxCell id="q6ug8Q1VMTqLKY95Yc3w-12" style="edgeStyle=orthogonalEdgeStyle;rounded=0;orthogonalLoop=1;jettySize=auto;html=1;entryX=0.5;entryY=0;entryDx=0;entryDy=0;" parent="1" source="q6ug8Q1VMTqLKY95Yc3w-7" target="q6ug8Q1VMTqLKY95Yc3w-9" edge="1">
          <mxGeometry relative="1" as="geometry" />
        </mxCell>
        <mxCell id="q6ug8Q1VMTqLKY95Yc3w-13" style="edgeStyle=orthogonalEdgeStyle;rounded=0;orthogonalLoop=1;jettySize=auto;html=1;entryX=0.5;entryY=0;entryDx=0;entryDy=0;" parent="1" source="q6ug8Q1VMTqLKY95Yc3w-7" target="q6ug8Q1VMTqLKY95Yc3w-10" edge="1">
          <mxGeometry relative="1" as="geometry" />
        </mxCell>
        <mxCell id="q6ug8Q1VMTqLKY95Yc3w-7" value="AR校园导览系统" style="rounded=0;whiteSpace=wrap;html=1;horizontal=1;fontFamily=Times New Roman;fontStyle=1" parent="1" vertex="1">
          <mxGeometry x="330" y="72" width="146" height="40" as="geometry" />
        </mxCell>
        <mxCell id="q6ug8Q1VMTqLKY95Yc3w-18" style="edgeStyle=orthogonalEdgeStyle;rounded=0;orthogonalLoop=1;jettySize=auto;html=1;entryX=0.5;entryY=0;entryDx=0;entryDy=0;" parent="1" source="q6ug8Q1VMTqLKY95Yc3w-8" target="q6ug8Q1VMTqLKY95Yc3w-15" edge="1">
          <mxGeometry relative="1" as="geometry" />
        </mxCell>
        <mxCell id="q6ug8Q1VMTqLKY95Yc3w-8" value="景点介绍" style="rounded=0;whiteSpace=wrap;html=1;" parent="1" vertex="1">
          <mxGeometry x="353" y="142" width="100" height="40" as="geometry" />
        </mxCell>
        <mxCell id="q6ug8Q1VMTqLKY95Yc3w-17" style="edgeStyle=orthogonalEdgeStyle;rounded=0;orthogonalLoop=1;jettySize=auto;html=1;entryX=0.5;entryY=0;entryDx=0;entryDy=0;" parent="1" source="q6ug8Q1VMTqLKY95Yc3w-9" target="q6ug8Q1VMTqLKY95Yc3w-14" edge="1">
          <mxGeometry relative="1" as="geometry" />
        </mxCell>
        <mxCell id="q6ug8Q1VMTqLKY95Yc3w-9" value="路径导航" style="rounded=0;whiteSpace=wrap;html=1;" parent="1" vertex="1">
          <mxGeometry x="220" y="142" width="100" height="40" as="geometry" />
        </mxCell>
        <mxCell id="q6ug8Q1VMTqLKY95Yc3w-19" value="" style="edgeStyle=orthogonalEdgeStyle;rounded=0;orthogonalLoop=1;jettySize=auto;html=1;" parent="1" source="q6ug8Q1VMTqLKY95Yc3w-10" target="q6ug8Q1VMTqLKY95Yc3w-16" edge="1">
          <mxGeometry relative="1" as="geometry" />
        </mxCell>
        <mxCell id="q6ug8Q1VMTqLKY95Yc3w-10" value="AR识别" style="rounded=0;whiteSpace=wrap;html=1;fontFamily=Times New Roman;" parent="1" vertex="1">
          <mxGeometry x="490" y="142" width="100" height="40" as="geometry" />
        </mxCell>
        <mxCell id="q6ug8Q1VMTqLKY95Yc3w-22" style="edgeStyle=orthogonalEdgeStyle;rounded=0;orthogonalLoop=1;jettySize=auto;html=1;entryX=0.5;entryY=0;entryDx=0;entryDy=0;" parent="1" source="q6ug8Q1VMTqLKY95Yc3w-14" target="q6ug8Q1VMTqLKY95Yc3w-20" edge="1">
          <mxGeometry relative="1" as="geometry" />
        </mxCell>
        <mxCell id="q6ug8Q1VMTqLKY95Yc3w-14" value="路径查询与规划" style="rounded=0;whiteSpace=wrap;html=1;" parent="1" vertex="1">
          <mxGeometry x="220" y="212" width="100" height="40" as="geometry" />
        </mxCell>
        <mxCell id="q6ug8Q1VMTqLKY95Yc3w-23" style="edgeStyle=orthogonalEdgeStyle;rounded=0;orthogonalLoop=1;jettySize=auto;html=1;entryX=0.5;entryY=0;entryDx=0;entryDy=0;" parent="1" source="q6ug8Q1VMTqLKY95Yc3w-15" target="q6ug8Q1VMTqLKY95Yc3w-20" edge="1">
          <mxGeometry relative="1" as="geometry" />
        </mxCell>
        <mxCell id="q6ug8Q1VMTqLKY95Yc3w-24" style="edgeStyle=orthogonalEdgeStyle;rounded=0;orthogonalLoop=1;jettySize=auto;html=1;entryX=0.5;entryY=0;entryDx=0;entryDy=0;" parent="1" source="q6ug8Q1VMTqLKY95Yc3w-15" target="q6ug8Q1VMTqLKY95Yc3w-21" edge="1">
          <mxGeometry relative="1" as="geometry" />
        </mxCell>
        <mxCell id="q6ug8Q1VMTqLKY95Yc3w-15" value="交互信息可视化" style="rounded=0;whiteSpace=wrap;html=1;" parent="1" vertex="1">
          <mxGeometry x="353" y="212" width="100" height="40" as="geometry" />
        </mxCell>
        <mxCell id="q6ug8Q1VMTqLKY95Yc3w-25" style="edgeStyle=orthogonalEdgeStyle;rounded=0;orthogonalLoop=1;jettySize=auto;html=1;" parent="1" source="q6ug8Q1VMTqLKY95Yc3w-16" edge="1">
          <mxGeometry relative="1" as="geometry">
            <mxPoint x="490" y="292" as="targetPoint" />
          </mxGeometry>
        </mxCell>
        <mxCell id="q6ug8Q1VMTqLKY95Yc3w-16" value="目标识别" style="rounded=0;whiteSpace=wrap;html=1;" parent="1" vertex="1">
          <mxGeometry x="490" y="212" width="100" height="40" as="geometry" />
        </mxCell>
        <mxCell id="q6ug8Q1VMTqLKY95Yc3w-20" value="地图导览" style="rounded=0;whiteSpace=wrap;html=1;" parent="1" vertex="1">
          <mxGeometry x="290" y="292" width="100" height="40" as="geometry" />
        </mxCell>
        <mxCell id="q6ug8Q1VMTqLKY95Yc3w-21" value="AR导览" style="rounded=0;whiteSpace=wrap;html=1;fontFamily=Times New Roman;" parent="1" vertex="1">
          <mxGeometry x="440" y="292" width="100" height="40" as="geometry" />
        </mxCell>
        <mxCell id="q6ug8Q1VMTqLKY95Yc3w-26" value="" style="endArrow=none;dashed=1;html=1;startArrow=none;" parent="1" source="q6ug8Q1VMTqLKY95Yc3w-50" edge="1">
          <mxGeometry width="50" height="50" relative="1" as="geometry">
            <mxPoint x="43" y="370" as="sourcePoint" />
            <mxPoint x="783" y="370" as="targetPoint" />
          </mxGeometry>
        </mxCell>
        <mxCell id="q6ug8Q1VMTqLKY95Yc3w-28" value="应用层" style="text;html=1;strokeColor=none;fillColor=none;align=center;verticalAlign=middle;whiteSpace=wrap;rounded=0;fontSize=15;fontStyle=1" parent="1" vertex="1">
          <mxGeometry x="610" y="192" width="60" height="20" as="geometry" />
        </mxCell>
        <mxCell id="q6ug8Q1VMTqLKY95Yc3w-30" value="" style="endArrow=classic;html=1;fontSize=15;" parent="1" edge="1">
          <mxGeometry relative="1" as="geometry">
            <mxPoint x="319" y="340" as="sourcePoint" />
            <mxPoint x="319" y="400" as="targetPoint" />
          </mxGeometry>
        </mxCell>
        <mxCell id="q6ug8Q1VMTqLKY95Yc3w-31" value="数据" style="edgeLabel;resizable=0;html=1;align=center;verticalAlign=middle;fontSize=13;" parent="q6ug8Q1VMTqLKY95Yc3w-30" connectable="0" vertex="1">
          <mxGeometry relative="1" as="geometry" />
        </mxCell>
        <mxCell id="q6ug8Q1VMTqLKY95Yc3w-33" value="" style="endArrow=classic;html=1;fontSize=15;" parent="1" edge="1">
          <mxGeometry relative="1" as="geometry">
            <mxPoint x="353" y="400" as="sourcePoint" />
            <mxPoint x="353" y="340" as="targetPoint" />
          </mxGeometry>
        </mxCell>
        <mxCell id="q6ug8Q1VMTqLKY95Yc3w-34" value="结果" style="edgeLabel;resizable=0;html=1;align=center;verticalAlign=middle;fontSize=13;" parent="q6ug8Q1VMTqLKY95Yc3w-33" connectable="0" vertex="1">
          <mxGeometry relative="1" as="geometry" />
        </mxCell>
        <mxCell id="q6ug8Q1VMTqLKY95Yc3w-35" value="高德地图云API" style="ellipse;shape=cloud;whiteSpace=wrap;html=1;fontFamily=Times New Roman;fontSize=13;fontStyle=1" parent="1" vertex="1">
          <mxGeometry x="275" y="398" width="120" height="80" as="geometry" />
        </mxCell>
        <mxCell id="q6ug8Q1VMTqLKY95Yc3w-36" value="Nanodet云服务" style="ellipse;shape=cloud;whiteSpace=wrap;html=1;fontFamily=Times New Roman;fontSize=13;fontStyle=1" parent="1" vertex="1">
          <mxGeometry x="460" y="398" width="120" height="80" as="geometry" />
        </mxCell>
        <mxCell id="q6ug8Q1VMTqLKY95Yc3w-40" style="edgeStyle=orthogonalEdgeStyle;rounded=0;orthogonalLoop=1;jettySize=auto;html=1;exitX=0.5;exitY=1;exitDx=0;exitDy=0;entryX=0.5;entryY=0;entryDx=0;entryDy=0;fontFamily=Times New Roman;fontSize=13;" parent="1" source="q6ug8Q1VMTqLKY95Yc3w-37" target="q6ug8Q1VMTqLKY95Yc3w-38" edge="1">
          <mxGeometry relative="1" as="geometry" />
        </mxCell>
        <mxCell id="q6ug8Q1VMTqLKY95Yc3w-37" value="定位数据(经纬度)" style="rounded=0;whiteSpace=wrap;html=1;fontFamily=Times New Roman;fontSize=13;" parent="1" vertex="1">
          <mxGeometry x="275" y="498" width="130" height="40" as="geometry" />
        </mxCell>
        <mxCell id="q6ug8Q1VMTqLKY95Yc3w-41" style="edgeStyle=orthogonalEdgeStyle;rounded=0;orthogonalLoop=1;jettySize=auto;html=1;fontFamily=Times New Roman;fontSize=13;" parent="1" source="q6ug8Q1VMTqLKY95Yc3w-38" target="q6ug8Q1VMTqLKY95Yc3w-39" edge="1">
          <mxGeometry relative="1" as="geometry" />
        </mxCell>
        <mxCell id="q6ug8Q1VMTqLKY95Yc3w-38" value="API查询" style="rounded=0;whiteSpace=wrap;html=1;fontFamily=Times New Roman;fontSize=13;" parent="1" vertex="1">
          <mxGeometry x="275" y="558" width="130" height="40" as="geometry" />
        </mxCell>
        <mxCell id="q6ug8Q1VMTqLKY95Yc3w-39" value="路径结果(JSON)" style="rounded=0;whiteSpace=wrap;html=1;fontFamily=Times New Roman;fontSize=13;" parent="1" vertex="1">
          <mxGeometry x="275" y="618" width="130" height="40" as="geometry" />
        </mxCell>
        <mxCell id="q6ug8Q1VMTqLKY95Yc3w-46" style="edgeStyle=orthogonalEdgeStyle;rounded=0;orthogonalLoop=1;jettySize=auto;html=1;exitX=0.5;exitY=1;exitDx=0;exitDy=0;entryX=0.5;entryY=0;entryDx=0;entryDy=0;fontFamily=Times New Roman;fontSize=13;" parent="1" source="q6ug8Q1VMTqLKY95Yc3w-42" target="q6ug8Q1VMTqLKY95Yc3w-43" edge="1">
          <mxGeometry relative="1" as="geometry" />
        </mxCell>
        <mxCell id="q6ug8Q1VMTqLKY95Yc3w-42" value="base64图像数据" style="rounded=0;whiteSpace=wrap;html=1;fontFamily=Times New Roman;fontSize=13;" parent="1" vertex="1">
          <mxGeometry x="460" y="498" width="120" height="40" as="geometry" />
        </mxCell>
        <mxCell id="q6ug8Q1VMTqLKY95Yc3w-47" style="edgeStyle=orthogonalEdgeStyle;rounded=0;orthogonalLoop=1;jettySize=auto;html=1;exitX=0.5;exitY=1;exitDx=0;exitDy=0;fontFamily=Times New Roman;fontSize=13;" parent="1" source="q6ug8Q1VMTqLKY95Yc3w-43" target="q6ug8Q1VMTqLKY95Yc3w-44" edge="1">
          <mxGeometry relative="1" as="geometry" />
        </mxCell>
        <mxCell id="q6ug8Q1VMTqLKY95Yc3w-43" value="解码、采样、预处理" style="rounded=0;whiteSpace=wrap;html=1;fontFamily=Times New Roman;fontSize=13;" parent="1" vertex="1">
          <mxGeometry x="460" y="558" width="120" height="40" as="geometry" />
        </mxCell>
        <mxCell id="q6ug8Q1VMTqLKY95Yc3w-48" style="edgeStyle=orthogonalEdgeStyle;rounded=0;orthogonalLoop=1;jettySize=auto;html=1;exitX=0.5;exitY=1;exitDx=0;exitDy=0;entryX=0.5;entryY=0;entryDx=0;entryDy=0;fontFamily=Times New Roman;fontSize=13;" parent="1" source="q6ug8Q1VMTqLKY95Yc3w-44" target="q6ug8Q1VMTqLKY95Yc3w-45" edge="1">
          <mxGeometry relative="1" as="geometry" />
        </mxCell>
        <mxCell id="q6ug8Q1VMTqLKY95Yc3w-44" value="模型推理" style="rounded=0;whiteSpace=wrap;html=1;fontFamily=Times New Roman;fontSize=13;" parent="1" vertex="1">
          <mxGeometry x="460" y="618" width="120" height="40" as="geometry" />
        </mxCell>
        <mxCell id="q6ug8Q1VMTqLKY95Yc3w-45" value="目标识别结果(JSON)" style="rounded=0;whiteSpace=wrap;html=1;fontFamily=Times New Roman;fontSize=13;" parent="1" vertex="1">
          <mxGeometry x="460" y="678" width="120" height="40" as="geometry" />
        </mxCell>
        <mxCell id="q6ug8Q1VMTqLKY95Yc3w-49" value="服务层" style="text;html=1;strokeColor=none;fillColor=none;align=center;verticalAlign=middle;whiteSpace=wrap;rounded=0;fontSize=15;fontStyle=1" parent="1" vertex="1">
          <mxGeometry x="610" y="508" width="60" height="20" as="geometry" />
        </mxCell>
        <mxCell id="q6ug8Q1VMTqLKY95Yc3w-50" value="WebSocket" style="ellipse;shape=doubleEllipse;whiteSpace=wrap;html=1;fontFamily=Times New Roman;fontSize=13;" parent="1" vertex="1">
          <mxGeometry x="376" y="340" width="100" height="60" as="geometry" />
        </mxCell>
        <mxCell id="q6ug8Q1VMTqLKY95Yc3w-51" value="" style="endArrow=none;dashed=1;html=1;" parent="1" target="q6ug8Q1VMTqLKY95Yc3w-50" edge="1">
          <mxGeometry width="50" height="50" relative="1" as="geometry">
            <mxPoint x="43" y="369.9999999999999" as="sourcePoint" />
            <mxPoint x="783" y="369.9999999999999" as="targetPoint" />
          </mxGeometry>
        </mxCell>
        <mxCell id="y6Y060skF9v-8W9OEPbq-1" value="" style="endArrow=classic;html=1;fontSize=15;" parent="1" edge="1">
          <mxGeometry relative="1" as="geometry">
            <mxPoint x="500" y="340" as="sourcePoint" />
            <mxPoint x="500" y="400" as="targetPoint" />
          </mxGeometry>
        </mxCell>
        <mxCell id="y6Y060skF9v-8W9OEPbq-2" value="数据" style="edgeLabel;resizable=0;html=1;align=center;verticalAlign=middle;fontSize=13;" parent="y6Y060skF9v-8W9OEPbq-1" connectable="0" vertex="1">
          <mxGeometry relative="1" as="geometry" />
        </mxCell>
        <mxCell id="y6Y060skF9v-8W9OEPbq-3" value="" style="endArrow=classic;html=1;fontSize=15;" parent="1" edge="1">
          <mxGeometry relative="1" as="geometry">
            <mxPoint x="530" y="400" as="sourcePoint" />
            <mxPoint x="530" y="340" as="targetPoint" />
          </mxGeometry>
        </mxCell>
        <mxCell id="y6Y060skF9v-8W9OEPbq-4" value="结果" style="edgeLabel;resizable=0;html=1;align=center;verticalAlign=middle;fontSize=13;" parent="y6Y060skF9v-8W9OEPbq-3" connectable="0" vertex="1">
          <mxGeometry relative="1" as="geometry" />
        </mxCell>
      </root>
    </mxGraphModel>
  </diagram>
  <diagram id="akiSWnUOzJgFoIU876gM" name="Page-2">
    <mxGraphModel dx="782" dy="478" grid="1" gridSize="10" guides="1" tooltips="1" connect="1" arrows="1" fold="1" page="1" pageScale="1" pageWidth="827" pageHeight="1169" math="0" shadow="0">
      <root>
        <mxCell id="5gzQXoZkXaFGl9H2-aul-0" />
        <mxCell id="5gzQXoZkXaFGl9H2-aul-1" parent="5gzQXoZkXaFGl9H2-aul-0" />
        <mxCell id="5gzQXoZkXaFGl9H2-aul-13" style="edgeStyle=orthogonalEdgeStyle;rounded=0;orthogonalLoop=1;jettySize=auto;html=1;exitX=0.5;exitY=1;exitDx=0;exitDy=0;entryX=0.5;entryY=0;entryDx=0;entryDy=0;fontFamily=Times New Roman;fontSize=13;" parent="5gzQXoZkXaFGl9H2-aul-1" source="5gzQXoZkXaFGl9H2-aul-2" target="5gzQXoZkXaFGl9H2-aul-3" edge="1">
          <mxGeometry relative="1" as="geometry" />
        </mxCell>
        <mxCell id="5gzQXoZkXaFGl9H2-aul-2" value="获取摄像头帧数据" style="rounded=0;whiteSpace=wrap;html=1;fontFamily=Times New Roman;fontSize=13;" parent="5gzQXoZkXaFGl9H2-aul-1" vertex="1">
          <mxGeometry x="240" y="40" width="150" height="30" as="geometry" />
        </mxCell>
        <mxCell id="5gzQXoZkXaFGl9H2-aul-14" value="" style="edgeStyle=orthogonalEdgeStyle;rounded=0;orthogonalLoop=1;jettySize=auto;html=1;fontFamily=Times New Roman;fontSize=13;" parent="5gzQXoZkXaFGl9H2-aul-1" source="5gzQXoZkXaFGl9H2-aul-3" target="5gzQXoZkXaFGl9H2-aul-5" edge="1">
          <mxGeometry relative="1" as="geometry" />
        </mxCell>
        <mxCell id="5gzQXoZkXaFGl9H2-aul-3" value="Canvas绘制" style="rounded=0;whiteSpace=wrap;html=1;fontFamily=Times New Roman;fontSize=13;" parent="5gzQXoZkXaFGl9H2-aul-1" vertex="1">
          <mxGeometry x="240" y="90" width="150" height="30" as="geometry" />
        </mxCell>
        <mxCell id="5gzQXoZkXaFGl9H2-aul-16" style="edgeStyle=orthogonalEdgeStyle;rounded=0;orthogonalLoop=1;jettySize=auto;html=1;exitX=0.5;exitY=1;exitDx=0;exitDy=0;entryX=0.5;entryY=0;entryDx=0;entryDy=0;fontFamily=Times New Roman;fontSize=13;" parent="5gzQXoZkXaFGl9H2-aul-1" source="5gzQXoZkXaFGl9H2-aul-4" target="5gzQXoZkXaFGl9H2-aul-6" edge="1">
          <mxGeometry relative="1" as="geometry" />
        </mxCell>
        <mxCell id="5gzQXoZkXaFGl9H2-aul-4" value="Canvas导出Base64编码字符串" style="rounded=0;whiteSpace=wrap;html=1;fontFamily=Times New Roman;fontSize=13;" parent="5gzQXoZkXaFGl9H2-aul-1" vertex="1">
          <mxGeometry x="225" y="190" width="180" height="30" as="geometry" />
        </mxCell>
        <mxCell id="5gzQXoZkXaFGl9H2-aul-15" style="edgeStyle=orthogonalEdgeStyle;rounded=0;orthogonalLoop=1;jettySize=auto;html=1;exitX=0.5;exitY=1;exitDx=0;exitDy=0;entryX=0.5;entryY=0;entryDx=0;entryDy=0;fontFamily=Times New Roman;fontSize=13;" parent="5gzQXoZkXaFGl9H2-aul-1" source="5gzQXoZkXaFGl9H2-aul-5" target="5gzQXoZkXaFGl9H2-aul-4" edge="1">
          <mxGeometry relative="1" as="geometry" />
        </mxCell>
        <mxCell id="5gzQXoZkXaFGl9H2-aul-5" value="裁切中心区域" style="rounded=0;whiteSpace=wrap;html=1;fontFamily=Times New Roman;fontSize=13;" parent="5gzQXoZkXaFGl9H2-aul-1" vertex="1">
          <mxGeometry x="240" y="140" width="150" height="30" as="geometry" />
        </mxCell>
        <mxCell id="5gzQXoZkXaFGl9H2-aul-17" style="edgeStyle=orthogonalEdgeStyle;rounded=0;orthogonalLoop=1;jettySize=auto;html=1;exitX=0.5;exitY=1;exitDx=0;exitDy=0;entryX=0.5;entryY=0;entryDx=0;entryDy=0;fontFamily=Times New Roman;fontSize=13;" parent="5gzQXoZkXaFGl9H2-aul-1" source="5gzQXoZkXaFGl9H2-aul-6" target="5gzQXoZkXaFGl9H2-aul-7" edge="1">
          <mxGeometry relative="1" as="geometry" />
        </mxCell>
        <mxCell id="5gzQXoZkXaFGl9H2-aul-6" value="Websocket上传至服务器" style="rounded=0;whiteSpace=wrap;html=1;fontFamily=Times New Roman;fontSize=13;" parent="5gzQXoZkXaFGl9H2-aul-1" vertex="1">
          <mxGeometry x="225" y="240" width="180" height="30" as="geometry" />
        </mxCell>
        <mxCell id="5gzQXoZkXaFGl9H2-aul-18" style="edgeStyle=orthogonalEdgeStyle;rounded=0;orthogonalLoop=1;jettySize=auto;html=1;exitX=1;exitY=0.5;exitDx=0;exitDy=0;entryX=0;entryY=0.5;entryDx=0;entryDy=0;fontFamily=Times New Roman;fontSize=13;" parent="5gzQXoZkXaFGl9H2-aul-1" source="5gzQXoZkXaFGl9H2-aul-7" target="5gzQXoZkXaFGl9H2-aul-8" edge="1">
          <mxGeometry relative="1" as="geometry" />
        </mxCell>
        <mxCell id="5gzQXoZkXaFGl9H2-aul-7" value="Base64解码" style="rounded=0;whiteSpace=wrap;html=1;fontFamily=Times New Roman;fontSize=13;" parent="5gzQXoZkXaFGl9H2-aul-1" vertex="1">
          <mxGeometry x="242.5" y="290" width="145" height="30" as="geometry" />
        </mxCell>
        <mxCell id="5gzQXoZkXaFGl9H2-aul-19" style="edgeStyle=orthogonalEdgeStyle;rounded=0;orthogonalLoop=1;jettySize=auto;html=1;exitX=0.5;exitY=0;exitDx=0;exitDy=0;fontFamily=Times New Roman;fontSize=13;" parent="5gzQXoZkXaFGl9H2-aul-1" source="5gzQXoZkXaFGl9H2-aul-8" target="5gzQXoZkXaFGl9H2-aul-9" edge="1">
          <mxGeometry relative="1" as="geometry" />
        </mxCell>
        <mxCell id="5gzQXoZkXaFGl9H2-aul-8" value="图像采样预处理" style="rounded=0;whiteSpace=wrap;html=1;fontFamily=Times New Roman;fontSize=13;" parent="5gzQXoZkXaFGl9H2-aul-1" vertex="1">
          <mxGeometry x="450" y="290" width="180" height="30" as="geometry" />
        </mxCell>
        <mxCell id="5gzQXoZkXaFGl9H2-aul-20" style="edgeStyle=orthogonalEdgeStyle;rounded=0;orthogonalLoop=1;jettySize=auto;html=1;exitX=0.5;exitY=0;exitDx=0;exitDy=0;entryX=0.5;entryY=1;entryDx=0;entryDy=0;fontFamily=Times New Roman;fontSize=13;" parent="5gzQXoZkXaFGl9H2-aul-1" source="5gzQXoZkXaFGl9H2-aul-9" target="5gzQXoZkXaFGl9H2-aul-10" edge="1">
          <mxGeometry relative="1" as="geometry" />
        </mxCell>
        <mxCell id="5gzQXoZkXaFGl9H2-aul-9" value="输入推理模型" style="rounded=0;whiteSpace=wrap;html=1;fontFamily=Times New Roman;fontSize=13;" parent="5gzQXoZkXaFGl9H2-aul-1" vertex="1">
          <mxGeometry x="475" y="240" width="130" height="30" as="geometry" />
        </mxCell>
        <mxCell id="5gzQXoZkXaFGl9H2-aul-21" style="edgeStyle=orthogonalEdgeStyle;rounded=0;orthogonalLoop=1;jettySize=auto;html=1;exitX=0.5;exitY=0;exitDx=0;exitDy=0;entryX=0.5;entryY=1;entryDx=0;entryDy=0;fontFamily=Times New Roman;fontSize=13;" parent="5gzQXoZkXaFGl9H2-aul-1" source="5gzQXoZkXaFGl9H2-aul-10" target="5gzQXoZkXaFGl9H2-aul-11" edge="1">
          <mxGeometry relative="1" as="geometry" />
        </mxCell>
        <mxCell id="5gzQXoZkXaFGl9H2-aul-10" value="封装识别结果(JSON)" style="rounded=0;whiteSpace=wrap;html=1;fontFamily=Times New Roman;fontSize=13;" parent="5gzQXoZkXaFGl9H2-aul-1" vertex="1">
          <mxGeometry x="450" y="190" width="180" height="30" as="geometry" />
        </mxCell>
        <mxCell id="5gzQXoZkXaFGl9H2-aul-22" style="edgeStyle=orthogonalEdgeStyle;rounded=0;orthogonalLoop=1;jettySize=auto;html=1;exitX=0.5;exitY=0;exitDx=0;exitDy=0;entryX=0.5;entryY=1;entryDx=0;entryDy=0;fontFamily=Times New Roman;fontSize=13;" parent="5gzQXoZkXaFGl9H2-aul-1" source="5gzQXoZkXaFGl9H2-aul-11" target="5gzQXoZkXaFGl9H2-aul-12" edge="1">
          <mxGeometry relative="1" as="geometry" />
        </mxCell>
        <mxCell id="5gzQXoZkXaFGl9H2-aul-11" value="解析JSON" style="rounded=0;whiteSpace=wrap;html=1;fontFamily=Times New Roman;fontSize=13;" parent="5gzQXoZkXaFGl9H2-aul-1" vertex="1">
          <mxGeometry x="490" y="140" width="100" height="30" as="geometry" />
        </mxCell>
        <mxCell id="5gzQXoZkXaFGl9H2-aul-23" style="edgeStyle=orthogonalEdgeStyle;rounded=0;orthogonalLoop=1;jettySize=auto;html=1;exitX=0;exitY=0.5;exitDx=0;exitDy=0;fontFamily=Times New Roman;fontSize=13;" parent="5gzQXoZkXaFGl9H2-aul-1" source="5gzQXoZkXaFGl9H2-aul-12" target="5gzQXoZkXaFGl9H2-aul-3" edge="1">
          <mxGeometry relative="1" as="geometry" />
        </mxCell>
        <mxCell id="5gzQXoZkXaFGl9H2-aul-12" value="坐标映射反解" style="rounded=0;whiteSpace=wrap;html=1;fontFamily=Times New Roman;fontSize=13;" parent="5gzQXoZkXaFGl9H2-aul-1" vertex="1">
          <mxGeometry x="490" y="90" width="100" height="30" as="geometry" />
        </mxCell>
      </root>
    </mxGraphModel>
  </diagram>
  <diagram id="zsfm3niXqBQz3nC-v2HK" name="Page-3">
    <mxGraphModel dx="782" dy="478" grid="1" gridSize="10" guides="1" tooltips="1" connect="1" arrows="1" fold="1" page="1" pageScale="1" pageWidth="827" pageHeight="1169" math="0" shadow="0">
      <root>
        <mxCell id="QYwiOVEUnwPS-xTNiT-_-0" />
        <mxCell id="QYwiOVEUnwPS-xTNiT-_-1" parent="QYwiOVEUnwPS-xTNiT-_-0" />
        <mxCell id="QYwiOVEUnwPS-xTNiT-_-14" style="edgeStyle=orthogonalEdgeStyle;rounded=0;orthogonalLoop=1;jettySize=auto;html=1;exitX=0.5;exitY=1;exitDx=0;exitDy=0;entryX=0.5;entryY=0;entryDx=0;entryDy=0;fontFamily=songti;" parent="QYwiOVEUnwPS-xTNiT-_-1" source="QYwiOVEUnwPS-xTNiT-_-3" target="QYwiOVEUnwPS-xTNiT-_-4" edge="1">
          <mxGeometry relative="1" as="geometry" />
        </mxCell>
        <mxCell id="QYwiOVEUnwPS-xTNiT-_-3" value="&lt;span&gt;数据获取(监听端口)&lt;/span&gt;" style="rounded=1;whiteSpace=wrap;html=1;fontFamily=songti;" parent="QYwiOVEUnwPS-xTNiT-_-1" vertex="1">
          <mxGeometry x="342.5" y="57" width="150" height="30" as="geometry" />
        </mxCell>
        <mxCell id="QYwiOVEUnwPS-xTNiT-_-12" style="edgeStyle=orthogonalEdgeStyle;rounded=0;orthogonalLoop=1;jettySize=auto;html=1;exitX=0.5;exitY=1;exitDx=0;exitDy=0;entryX=0.5;entryY=0;entryDx=0;entryDy=0;fontFamily=songti;" parent="QYwiOVEUnwPS-xTNiT-_-1" source="QYwiOVEUnwPS-xTNiT-_-4" target="QYwiOVEUnwPS-xTNiT-_-5" edge="1">
          <mxGeometry relative="1" as="geometry" />
        </mxCell>
        <mxCell id="QYwiOVEUnwPS-xTNiT-_-4" value="图像预处理(解码、采样)" style="rounded=0;whiteSpace=wrap;html=1;fontFamily=songti;" parent="QYwiOVEUnwPS-xTNiT-_-1" vertex="1">
          <mxGeometry x="340" y="108" width="155" height="30" as="geometry" />
        </mxCell>
        <mxCell id="QYwiOVEUnwPS-xTNiT-_-13" value="" style="edgeStyle=orthogonalEdgeStyle;rounded=0;orthogonalLoop=1;jettySize=auto;html=1;fontFamily=songti;" parent="QYwiOVEUnwPS-xTNiT-_-1" source="QYwiOVEUnwPS-xTNiT-_-5" target="QYwiOVEUnwPS-xTNiT-_-6" edge="1">
          <mxGeometry relative="1" as="geometry" />
        </mxCell>
        <mxCell id="QYwiOVEUnwPS-xTNiT-_-5" value="ONNX Runtime推理" style="rounded=0;whiteSpace=wrap;html=1;fontFamily=Times New Roman;" parent="QYwiOVEUnwPS-xTNiT-_-1" vertex="1">
          <mxGeometry x="345" y="160" width="145" height="30" as="geometry" />
        </mxCell>
        <mxCell id="QYwiOVEUnwPS-xTNiT-_-9" style="edgeStyle=orthogonalEdgeStyle;rounded=0;orthogonalLoop=1;jettySize=auto;html=1;exitX=0;exitY=0.5;exitDx=0;exitDy=0;exitPerimeter=0;entryX=0.5;entryY=0;entryDx=0;entryDy=0;fontFamily=songti;" parent="QYwiOVEUnwPS-xTNiT-_-1" source="QYwiOVEUnwPS-xTNiT-_-6" target="QYwiOVEUnwPS-xTNiT-_-7" edge="1">
          <mxGeometry relative="1" as="geometry" />
        </mxCell>
        <mxCell id="QYwiOVEUnwPS-xTNiT-_-10" style="edgeStyle=orthogonalEdgeStyle;rounded=0;orthogonalLoop=1;jettySize=auto;html=1;exitX=1;exitY=0.5;exitDx=0;exitDy=0;exitPerimeter=0;fontFamily=songti;" parent="QYwiOVEUnwPS-xTNiT-_-1" source="QYwiOVEUnwPS-xTNiT-_-6" target="QYwiOVEUnwPS-xTNiT-_-8" edge="1">
          <mxGeometry relative="1" as="geometry" />
        </mxCell>
        <mxCell id="QYwiOVEUnwPS-xTNiT-_-6" value="目标结果" style="strokeWidth=2;html=1;shape=mxgraph.flowchart.decision;whiteSpace=wrap;fontFamily=songti;" parent="QYwiOVEUnwPS-xTNiT-_-1" vertex="1">
          <mxGeometry x="360.625" y="210" width="113.75" height="50" as="geometry" />
        </mxCell>
        <mxCell id="QYwiOVEUnwPS-xTNiT-_-17" style="edgeStyle=orthogonalEdgeStyle;rounded=0;orthogonalLoop=1;jettySize=auto;html=1;exitX=0.5;exitY=1;exitDx=0;exitDy=0;entryX=0;entryY=0.5;entryDx=0;entryDy=0;fontFamily=Times New Roman;" parent="QYwiOVEUnwPS-xTNiT-_-1" source="QYwiOVEUnwPS-xTNiT-_-7" target="QYwiOVEUnwPS-xTNiT-_-15" edge="1">
          <mxGeometry relative="1" as="geometry" />
        </mxCell>
        <mxCell id="QYwiOVEUnwPS-xTNiT-_-7" value="正常状态码+识别结果" style="rounded=0;whiteSpace=wrap;html=1;fontFamily=songti;" parent="QYwiOVEUnwPS-xTNiT-_-1" vertex="1">
          <mxGeometry x="230" y="262" width="140" height="30" as="geometry" />
        </mxCell>
        <mxCell id="QYwiOVEUnwPS-xTNiT-_-18" style="edgeStyle=orthogonalEdgeStyle;rounded=0;orthogonalLoop=1;jettySize=auto;html=1;exitX=0.5;exitY=1;exitDx=0;exitDy=0;entryX=1;entryY=0.5;entryDx=0;entryDy=0;fontFamily=Times New Roman;" parent="QYwiOVEUnwPS-xTNiT-_-1" source="QYwiOVEUnwPS-xTNiT-_-8" target="QYwiOVEUnwPS-xTNiT-_-15" edge="1">
          <mxGeometry relative="1" as="geometry" />
        </mxCell>
        <mxCell id="QYwiOVEUnwPS-xTNiT-_-8" value="异常状态码" style="rounded=0;whiteSpace=wrap;html=1;fontFamily=songti;" parent="QYwiOVEUnwPS-xTNiT-_-1" vertex="1">
          <mxGeometry x="460" y="262" width="130" height="30" as="geometry" />
        </mxCell>
        <mxCell id="QYwiOVEUnwPS-xTNiT-_-20" style="edgeStyle=orthogonalEdgeStyle;rounded=0;orthogonalLoop=1;jettySize=auto;html=1;exitX=0.5;exitY=1;exitDx=0;exitDy=0;entryX=0.5;entryY=0;entryDx=0;entryDy=0;fontFamily=Times New Roman;" parent="QYwiOVEUnwPS-xTNiT-_-1" source="QYwiOVEUnwPS-xTNiT-_-15" target="QYwiOVEUnwPS-xTNiT-_-19" edge="1">
          <mxGeometry relative="1" as="geometry" />
        </mxCell>
        <mxCell id="QYwiOVEUnwPS-xTNiT-_-15" value="封装为JSON" style="rounded=0;whiteSpace=wrap;html=1;fontFamily=Times New Roman;" parent="QYwiOVEUnwPS-xTNiT-_-1" vertex="1">
          <mxGeometry x="351" y="310" width="126" height="30" as="geometry" />
        </mxCell>
        <mxCell id="QYwiOVEUnwPS-xTNiT-_-19" value="Websocket传递" style="rounded=0;whiteSpace=wrap;html=1;fontFamily=Times New Roman;" parent="QYwiOVEUnwPS-xTNiT-_-1" vertex="1">
          <mxGeometry x="354.5" y="360" width="126" height="30" as="geometry" />
        </mxCell>
      </root>
    </mxGraphModel>
  </diagram>
  <diagram id="56Xd0H465B1OBHOAUCZi" name="Page-4">
    <mxGraphModel dx="782" dy="478" grid="1" gridSize="10" guides="1" tooltips="1" connect="1" arrows="1" fold="1" page="1" pageScale="1" pageWidth="827" pageHeight="1169" math="0" shadow="0">
      <root>
        <mxCell id="4swetIxyhp23ioZ733Vt-0" />
        <mxCell id="4swetIxyhp23ioZ733Vt-1" parent="4swetIxyhp23ioZ733Vt-0" />
        <mxCell id="4swetIxyhp23ioZ733Vt-2" value="" style="rounded=1;whiteSpace=wrap;html=1;" parent="4swetIxyhp23ioZ733Vt-1" vertex="1">
          <mxGeometry x="109" y="616" width="30" height="30" as="geometry" />
        </mxCell>
        <mxCell id="4swetIxyhp23ioZ733Vt-6" style="edgeStyle=orthogonalEdgeStyle;rounded=0;orthogonalLoop=1;jettySize=auto;html=1;exitX=0;exitY=0;exitDx=0;exitDy=0;" parent="4swetIxyhp23ioZ733Vt-1" source="4swetIxyhp23ioZ733Vt-3" edge="1">
          <mxGeometry relative="1" as="geometry">
            <mxPoint x="139" y="596" as="targetPoint" />
          </mxGeometry>
        </mxCell>
        <mxCell id="4swetIxyhp23ioZ733Vt-3" value="" style="rounded=1;whiteSpace=wrap;html=1;fillColor=#CCCCCC;" parent="4swetIxyhp23ioZ733Vt-1" vertex="1">
          <mxGeometry x="139" y="616" width="60" height="30" as="geometry" />
        </mxCell>
        <mxCell id="4swetIxyhp23ioZ733Vt-54" style="edgeStyle=orthogonalEdgeStyle;rounded=0;orthogonalLoop=1;jettySize=auto;html=1;exitX=0.5;exitY=0;exitDx=0;exitDy=0;entryX=0.5;entryY=1;entryDx=0;entryDy=0;fontFamily=Times New Roman;fontSize=14;" parent="4swetIxyhp23ioZ733Vt-1" source="4swetIxyhp23ioZ733Vt-4" target="4swetIxyhp23ioZ733Vt-49" edge="1">
          <mxGeometry relative="1" as="geometry" />
        </mxCell>
        <mxCell id="4swetIxyhp23ioZ733Vt-4" value="&lt;font face=&quot;Times New Roman&quot; style=&quot;font-size: 18px&quot;&gt;BiLSTM&lt;/font&gt;" style="rounded=0;whiteSpace=wrap;html=1;" parent="4swetIxyhp23ioZ733Vt-1" vertex="1">
          <mxGeometry x="109" y="546" width="90" height="40" as="geometry" />
        </mxCell>
        <mxCell id="4swetIxyhp23ioZ733Vt-7" value="" style="rounded=1;whiteSpace=wrap;html=1;" parent="4swetIxyhp23ioZ733Vt-1" vertex="1">
          <mxGeometry x="239" y="616" width="30" height="30" as="geometry" />
        </mxCell>
        <mxCell id="4swetIxyhp23ioZ733Vt-8" style="edgeStyle=orthogonalEdgeStyle;rounded=0;orthogonalLoop=1;jettySize=auto;html=1;exitX=0;exitY=0;exitDx=0;exitDy=0;" parent="4swetIxyhp23ioZ733Vt-1" source="4swetIxyhp23ioZ733Vt-9" edge="1">
          <mxGeometry relative="1" as="geometry">
            <mxPoint x="269" y="596" as="targetPoint" />
          </mxGeometry>
        </mxCell>
        <mxCell id="4swetIxyhp23ioZ733Vt-9" value="" style="rounded=1;whiteSpace=wrap;html=1;fillColor=#CCCCCC;" parent="4swetIxyhp23ioZ733Vt-1" vertex="1">
          <mxGeometry x="269" y="616" width="60" height="30" as="geometry" />
        </mxCell>
        <mxCell id="4swetIxyhp23ioZ733Vt-55" style="edgeStyle=orthogonalEdgeStyle;rounded=0;orthogonalLoop=1;jettySize=auto;html=1;exitX=0.5;exitY=0;exitDx=0;exitDy=0;entryX=0.5;entryY=1;entryDx=0;entryDy=0;fontFamily=Times New Roman;fontSize=14;" parent="4swetIxyhp23ioZ733Vt-1" source="4swetIxyhp23ioZ733Vt-10" target="4swetIxyhp23ioZ733Vt-50" edge="1">
          <mxGeometry relative="1" as="geometry" />
        </mxCell>
        <mxCell id="4swetIxyhp23ioZ733Vt-10" value="&lt;font face=&quot;Times New Roman&quot; style=&quot;font-size: 18px&quot;&gt;BiLSTM&lt;/font&gt;" style="rounded=0;whiteSpace=wrap;html=1;" parent="4swetIxyhp23ioZ733Vt-1" vertex="1">
          <mxGeometry x="239" y="546" width="90" height="40" as="geometry" />
        </mxCell>
        <mxCell id="4swetIxyhp23ioZ733Vt-11" value="" style="rounded=1;whiteSpace=wrap;html=1;" parent="4swetIxyhp23ioZ733Vt-1" vertex="1">
          <mxGeometry x="369" y="616" width="30" height="30" as="geometry" />
        </mxCell>
        <mxCell id="4swetIxyhp23ioZ733Vt-12" style="edgeStyle=orthogonalEdgeStyle;rounded=0;orthogonalLoop=1;jettySize=auto;html=1;exitX=0;exitY=0;exitDx=0;exitDy=0;" parent="4swetIxyhp23ioZ733Vt-1" source="4swetIxyhp23ioZ733Vt-13" edge="1">
          <mxGeometry relative="1" as="geometry">
            <mxPoint x="399" y="596" as="targetPoint" />
          </mxGeometry>
        </mxCell>
        <mxCell id="4swetIxyhp23ioZ733Vt-13" value="" style="rounded=1;whiteSpace=wrap;html=1;fillColor=#CCCCCC;" parent="4swetIxyhp23ioZ733Vt-1" vertex="1">
          <mxGeometry x="399" y="616" width="60" height="30" as="geometry" />
        </mxCell>
        <mxCell id="4swetIxyhp23ioZ733Vt-56" style="edgeStyle=orthogonalEdgeStyle;rounded=0;orthogonalLoop=1;jettySize=auto;html=1;exitX=0.5;exitY=0;exitDx=0;exitDy=0;entryX=0.5;entryY=1;entryDx=0;entryDy=0;fontFamily=Times New Roman;fontSize=14;" parent="4swetIxyhp23ioZ733Vt-1" source="4swetIxyhp23ioZ733Vt-14" target="4swetIxyhp23ioZ733Vt-51" edge="1">
          <mxGeometry relative="1" as="geometry" />
        </mxCell>
        <mxCell id="4swetIxyhp23ioZ733Vt-14" value="&lt;font face=&quot;Times New Roman&quot; style=&quot;font-size: 18px&quot;&gt;BiLSTM&lt;/font&gt;" style="rounded=0;whiteSpace=wrap;html=1;" parent="4swetIxyhp23ioZ733Vt-1" vertex="1">
          <mxGeometry x="369" y="546" width="90" height="40" as="geometry" />
        </mxCell>
        <mxCell id="4swetIxyhp23ioZ733Vt-15" value="" style="rounded=1;whiteSpace=wrap;html=1;" parent="4swetIxyhp23ioZ733Vt-1" vertex="1">
          <mxGeometry x="499" y="616" width="30" height="30" as="geometry" />
        </mxCell>
        <mxCell id="4swetIxyhp23ioZ733Vt-16" style="edgeStyle=orthogonalEdgeStyle;rounded=0;orthogonalLoop=1;jettySize=auto;html=1;exitX=0;exitY=0;exitDx=0;exitDy=0;" parent="4swetIxyhp23ioZ733Vt-1" source="4swetIxyhp23ioZ733Vt-17" edge="1">
          <mxGeometry relative="1" as="geometry">
            <mxPoint x="529" y="596" as="targetPoint" />
          </mxGeometry>
        </mxCell>
        <mxCell id="4swetIxyhp23ioZ733Vt-17" value="" style="rounded=1;whiteSpace=wrap;html=1;fillColor=#CCCCCC;" parent="4swetIxyhp23ioZ733Vt-1" vertex="1">
          <mxGeometry x="529" y="616" width="60" height="30" as="geometry" />
        </mxCell>
        <mxCell id="4swetIxyhp23ioZ733Vt-57" style="edgeStyle=orthogonalEdgeStyle;rounded=0;orthogonalLoop=1;jettySize=auto;html=1;exitX=0.5;exitY=0;exitDx=0;exitDy=0;entryX=0.5;entryY=1;entryDx=0;entryDy=0;fontFamily=Times New Roman;fontSize=14;" parent="4swetIxyhp23ioZ733Vt-1" source="4swetIxyhp23ioZ733Vt-18" target="4swetIxyhp23ioZ733Vt-52" edge="1">
          <mxGeometry relative="1" as="geometry" />
        </mxCell>
        <mxCell id="4swetIxyhp23ioZ733Vt-18" value="&lt;font face=&quot;Times New Roman&quot; style=&quot;font-size: 18px&quot;&gt;BiLSTM&lt;/font&gt;" style="rounded=0;whiteSpace=wrap;html=1;" parent="4swetIxyhp23ioZ733Vt-1" vertex="1">
          <mxGeometry x="499" y="546" width="90" height="40" as="geometry" />
        </mxCell>
        <mxCell id="4swetIxyhp23ioZ733Vt-19" value="" style="rounded=1;whiteSpace=wrap;html=1;" parent="4swetIxyhp23ioZ733Vt-1" vertex="1">
          <mxGeometry x="629" y="616" width="30" height="30" as="geometry" />
        </mxCell>
        <mxCell id="4swetIxyhp23ioZ733Vt-20" style="edgeStyle=orthogonalEdgeStyle;rounded=0;orthogonalLoop=1;jettySize=auto;html=1;exitX=0;exitY=0;exitDx=0;exitDy=0;" parent="4swetIxyhp23ioZ733Vt-1" source="4swetIxyhp23ioZ733Vt-21" edge="1">
          <mxGeometry relative="1" as="geometry">
            <mxPoint x="659" y="596" as="targetPoint" />
          </mxGeometry>
        </mxCell>
        <mxCell id="4swetIxyhp23ioZ733Vt-21" value="" style="rounded=1;whiteSpace=wrap;html=1;fillColor=#CCCCCC;" parent="4swetIxyhp23ioZ733Vt-1" vertex="1">
          <mxGeometry x="659" y="616" width="60" height="30" as="geometry" />
        </mxCell>
        <mxCell id="4swetIxyhp23ioZ733Vt-58" style="edgeStyle=orthogonalEdgeStyle;rounded=0;orthogonalLoop=1;jettySize=auto;html=1;exitX=0.5;exitY=0;exitDx=0;exitDy=0;entryX=0.5;entryY=1;entryDx=0;entryDy=0;fontFamily=Times New Roman;fontSize=14;" parent="4swetIxyhp23ioZ733Vt-1" source="4swetIxyhp23ioZ733Vt-22" target="4swetIxyhp23ioZ733Vt-53" edge="1">
          <mxGeometry relative="1" as="geometry" />
        </mxCell>
        <mxCell id="4swetIxyhp23ioZ733Vt-22" value="&lt;font face=&quot;Times New Roman&quot; style=&quot;font-size: 18px&quot;&gt;BiLSTM&lt;/font&gt;" style="rounded=0;whiteSpace=wrap;html=1;" parent="4swetIxyhp23ioZ733Vt-1" vertex="1">
          <mxGeometry x="629" y="546" width="90" height="40" as="geometry" />
        </mxCell>
        <mxCell id="4swetIxyhp23ioZ733Vt-30" value="" style="group" parent="4swetIxyhp23ioZ733Vt-1" vertex="1" connectable="0">
          <mxGeometry x="201" y="556" width="38" height="20" as="geometry" />
        </mxCell>
        <mxCell id="4swetIxyhp23ioZ733Vt-27" value="" style="endArrow=classic;html=1;" parent="4swetIxyhp23ioZ733Vt-30" edge="1">
          <mxGeometry width="50" height="50" relative="1" as="geometry">
            <mxPoint as="sourcePoint" />
            <mxPoint x="38" as="targetPoint" />
          </mxGeometry>
        </mxCell>
        <mxCell id="4swetIxyhp23ioZ733Vt-28" value="" style="endArrow=classic;html=1;exitX=0;exitY=0.75;exitDx=0;exitDy=0;" parent="4swetIxyhp23ioZ733Vt-30" source="4swetIxyhp23ioZ733Vt-10" edge="1">
          <mxGeometry width="50" height="50" relative="1" as="geometry">
            <mxPoint x="30" y="20" as="sourcePoint" />
            <mxPoint y="20" as="targetPoint" />
          </mxGeometry>
        </mxCell>
        <mxCell id="4swetIxyhp23ioZ733Vt-35" value="" style="group" parent="4swetIxyhp23ioZ733Vt-1" vertex="1" connectable="0">
          <mxGeometry x="331" y="556" width="38" height="20" as="geometry" />
        </mxCell>
        <mxCell id="4swetIxyhp23ioZ733Vt-32" value="" style="endArrow=classic;html=1;" parent="4swetIxyhp23ioZ733Vt-35" edge="1">
          <mxGeometry width="50" height="50" as="geometry">
            <mxPoint as="sourcePoint" />
            <mxPoint x="38" as="targetPoint" />
          </mxGeometry>
        </mxCell>
        <mxCell id="4swetIxyhp23ioZ733Vt-33" value="" style="endArrow=classic;html=1;exitX=0;exitY=0.75;exitDx=0;exitDy=0;" parent="4swetIxyhp23ioZ733Vt-35" source="4swetIxyhp23ioZ733Vt-14" edge="1">
          <mxGeometry width="50" height="50" as="geometry">
            <mxPoint x="30" y="20" as="sourcePoint" />
            <mxPoint y="20" as="targetPoint" />
          </mxGeometry>
        </mxCell>
        <mxCell id="4swetIxyhp23ioZ733Vt-39" value="" style="group" parent="4swetIxyhp23ioZ733Vt-1" vertex="1" connectable="0">
          <mxGeometry x="589" y="556" width="40" height="20" as="geometry" />
        </mxCell>
        <mxCell id="4swetIxyhp23ioZ733Vt-37" value="" style="endArrow=classic;html=1;" parent="4swetIxyhp23ioZ733Vt-39" edge="1">
          <mxGeometry width="50" height="50" as="geometry">
            <mxPoint as="sourcePoint" />
            <mxPoint x="38" as="targetPoint" />
          </mxGeometry>
        </mxCell>
        <mxCell id="4swetIxyhp23ioZ733Vt-38" value="" style="endArrow=classic;html=1;" parent="4swetIxyhp23ioZ733Vt-39" edge="1">
          <mxGeometry width="50" height="50" as="geometry">
            <mxPoint x="40" y="20" as="sourcePoint" />
            <mxPoint y="20" as="targetPoint" />
          </mxGeometry>
        </mxCell>
        <mxCell id="4swetIxyhp23ioZ733Vt-40" value="" style="group" parent="4swetIxyhp23ioZ733Vt-1" vertex="1" connectable="0">
          <mxGeometry x="459" y="556" width="40" height="20" as="geometry" />
        </mxCell>
        <mxCell id="4swetIxyhp23ioZ733Vt-41" value="" style="endArrow=classic;html=1;" parent="4swetIxyhp23ioZ733Vt-40" edge="1">
          <mxGeometry width="50" height="50" as="geometry">
            <mxPoint as="sourcePoint" />
            <mxPoint x="38" as="targetPoint" />
          </mxGeometry>
        </mxCell>
        <mxCell id="4swetIxyhp23ioZ733Vt-42" value="" style="endArrow=classic;html=1;" parent="4swetIxyhp23ioZ733Vt-40" edge="1">
          <mxGeometry width="50" height="50" as="geometry">
            <mxPoint x="40" y="20" as="sourcePoint" />
            <mxPoint y="20" as="targetPoint" />
          </mxGeometry>
        </mxCell>
        <mxCell id="4swetIxyhp23ioZ733Vt-43" value="" style="group" parent="4swetIxyhp23ioZ733Vt-1" vertex="1" connectable="0">
          <mxGeometry x="79" y="556" width="30" height="20" as="geometry" />
        </mxCell>
        <mxCell id="4swetIxyhp23ioZ733Vt-23" value="" style="endArrow=classic;html=1;" parent="4swetIxyhp23ioZ733Vt-43" edge="1">
          <mxGeometry width="50" height="50" relative="1" as="geometry">
            <mxPoint as="sourcePoint" />
            <mxPoint x="30" as="targetPoint" />
          </mxGeometry>
        </mxCell>
        <mxCell id="4swetIxyhp23ioZ733Vt-24" value="" style="endArrow=classic;html=1;" parent="4swetIxyhp23ioZ733Vt-43" edge="1">
          <mxGeometry width="50" height="50" relative="1" as="geometry">
            <mxPoint x="30" y="20" as="sourcePoint" />
            <mxPoint y="20" as="targetPoint" />
          </mxGeometry>
        </mxCell>
        <mxCell id="4swetIxyhp23ioZ733Vt-44" value="" style="group" parent="4swetIxyhp23ioZ733Vt-1" vertex="1" connectable="0">
          <mxGeometry x="719" y="556" width="30" height="20" as="geometry" />
        </mxCell>
        <mxCell id="4swetIxyhp23ioZ733Vt-45" value="" style="endArrow=classic;html=1;" parent="4swetIxyhp23ioZ733Vt-44" edge="1">
          <mxGeometry width="50" height="50" relative="1" as="geometry">
            <mxPoint as="sourcePoint" />
            <mxPoint x="30" as="targetPoint" />
          </mxGeometry>
        </mxCell>
        <mxCell id="4swetIxyhp23ioZ733Vt-46" value="" style="endArrow=classic;html=1;" parent="4swetIxyhp23ioZ733Vt-44" edge="1">
          <mxGeometry width="50" height="50" relative="1" as="geometry">
            <mxPoint x="30" y="20" as="sourcePoint" />
            <mxPoint y="20" as="targetPoint" />
          </mxGeometry>
        </mxCell>
        <mxCell id="4swetIxyhp23ioZ733Vt-60" style="edgeStyle=orthogonalEdgeStyle;rounded=0;orthogonalLoop=1;jettySize=auto;html=1;exitX=0.5;exitY=0;exitDx=0;exitDy=0;entryX=0.075;entryY=1.017;entryDx=0;entryDy=0;entryPerimeter=0;fontFamily=Times New Roman;fontSize=14;" parent="4swetIxyhp23ioZ733Vt-1" source="4swetIxyhp23ioZ733Vt-49" target="4swetIxyhp23ioZ733Vt-59" edge="1">
          <mxGeometry relative="1" as="geometry" />
        </mxCell>
        <mxCell id="4swetIxyhp23ioZ733Vt-49" value="&lt;font style=&quot;font-size: 16px;&quot;&gt;1.5&lt;br style=&quot;font-size: 16px;&quot;&gt;0.9&lt;br style=&quot;font-size: 16px;&quot;&gt;0.1&lt;br style=&quot;font-size: 16px;&quot;&gt;0.08&lt;br style=&quot;font-size: 16px;&quot;&gt;0.05&lt;/font&gt;" style="rounded=0;whiteSpace=wrap;html=1;fillColor=#FFFFFF;fontFamily=Times New Roman;fontSize=16;" parent="4swetIxyhp23ioZ733Vt-1" vertex="1">
          <mxGeometry x="116.5" y="396" width="75" height="120" as="geometry" />
        </mxCell>
        <mxCell id="4swetIxyhp23ioZ733Vt-61" style="edgeStyle=orthogonalEdgeStyle;rounded=0;orthogonalLoop=1;jettySize=auto;html=1;exitX=0.5;exitY=0;exitDx=0;exitDy=0;entryX=0.286;entryY=1.017;entryDx=0;entryDy=0;entryPerimeter=0;fontFamily=Times New Roman;fontSize=14;" parent="4swetIxyhp23ioZ733Vt-1" source="4swetIxyhp23ioZ733Vt-50" target="4swetIxyhp23ioZ733Vt-59" edge="1">
          <mxGeometry relative="1" as="geometry" />
        </mxCell>
        <mxCell id="4swetIxyhp23ioZ733Vt-50" value="&lt;span style=&quot;font-size: 16px;&quot;&gt;0.2&lt;br style=&quot;font-size: 16px;&quot;&gt;&lt;/span&gt;0.4&lt;br style=&quot;font-size: 16px;&quot;&gt;0.1&lt;br style=&quot;font-size: 16px;&quot;&gt;0.11&lt;br style=&quot;font-size: 16px;&quot;&gt;0.05" style="rounded=0;whiteSpace=wrap;html=1;fillColor=#FFFFFF;fontFamily=Times New Roman;fontSize=16;" parent="4swetIxyhp23ioZ733Vt-1" vertex="1">
          <mxGeometry x="246.5" y="396" width="75" height="120" as="geometry" />
        </mxCell>
        <mxCell id="4swetIxyhp23ioZ733Vt-62" style="edgeStyle=orthogonalEdgeStyle;rounded=0;orthogonalLoop=1;jettySize=auto;html=1;exitX=0.5;exitY=0;exitDx=0;exitDy=0;entryX=0.5;entryY=1;entryDx=0;entryDy=0;fontFamily=Times New Roman;fontSize=14;" parent="4swetIxyhp23ioZ733Vt-1" source="4swetIxyhp23ioZ733Vt-51" target="4swetIxyhp23ioZ733Vt-59" edge="1">
          <mxGeometry relative="1" as="geometry" />
        </mxCell>
        <mxCell id="4swetIxyhp23ioZ733Vt-51" value="&lt;span style=&quot;font-size: 16px;&quot;&gt;0.09&lt;br style=&quot;font-size: 16px;&quot;&gt;&lt;/span&gt;0.02&lt;br style=&quot;font-size: 16px;&quot;&gt;0.03&lt;br style=&quot;font-size: 16px;&quot;&gt;0.08&lt;br style=&quot;font-size: 16px;&quot;&gt;0.1" style="rounded=0;whiteSpace=wrap;html=1;fillColor=#FFFFFF;fontFamily=Times New Roman;fontSize=16;" parent="4swetIxyhp23ioZ733Vt-1" vertex="1">
          <mxGeometry x="376.5" y="396" width="75" height="120" as="geometry" />
        </mxCell>
        <mxCell id="4swetIxyhp23ioZ733Vt-63" style="edgeStyle=orthogonalEdgeStyle;rounded=0;orthogonalLoop=1;jettySize=auto;html=1;exitX=0.5;exitY=0;exitDx=0;exitDy=0;entryX=0.717;entryY=1.117;entryDx=0;entryDy=0;entryPerimeter=0;fontFamily=Times New Roman;fontSize=14;" parent="4swetIxyhp23ioZ733Vt-1" source="4swetIxyhp23ioZ733Vt-52" target="4swetIxyhp23ioZ733Vt-59" edge="1">
          <mxGeometry relative="1" as="geometry" />
        </mxCell>
        <mxCell id="4swetIxyhp23ioZ733Vt-52" value="&lt;span style=&quot;font-size: 16px;&quot;&gt;0.03&lt;br style=&quot;font-size: 16px;&quot;&gt;&lt;/span&gt;0.02&lt;br style=&quot;font-size: 16px;&quot;&gt;0.2&lt;br style=&quot;font-size: 16px;&quot;&gt;0.07&lt;br style=&quot;font-size: 16px;&quot;&gt;0.05" style="rounded=0;whiteSpace=wrap;html=1;fillColor=#FFFFFF;fontFamily=Times New Roman;fontSize=16;" parent="4swetIxyhp23ioZ733Vt-1" vertex="1">
          <mxGeometry x="506.5" y="396" width="75" height="120" as="geometry" />
        </mxCell>
        <mxCell id="4swetIxyhp23ioZ733Vt-64" style="edgeStyle=orthogonalEdgeStyle;rounded=0;orthogonalLoop=1;jettySize=auto;html=1;exitX=0.5;exitY=0;exitDx=0;exitDy=0;entryX=0.929;entryY=1.1;entryDx=0;entryDy=0;entryPerimeter=0;fontFamily=Times New Roman;fontSize=14;" parent="4swetIxyhp23ioZ733Vt-1" source="4swetIxyhp23ioZ733Vt-53" target="4swetIxyhp23ioZ733Vt-59" edge="1">
          <mxGeometry relative="1" as="geometry" />
        </mxCell>
        <mxCell id="4swetIxyhp23ioZ733Vt-53" value="&lt;span style=&quot;font-size: 16px;&quot;&gt;0.12&lt;br style=&quot;font-size: 16px;&quot;&gt;&lt;/span&gt;0.2&lt;br style=&quot;font-size: 16px;&quot;&gt;0.1&lt;br style=&quot;font-size: 16px;&quot;&gt;0.065&lt;br style=&quot;font-size: 16px;&quot;&gt;0.5" style="rounded=0;whiteSpace=wrap;html=1;fillColor=#FFFFFF;fontFamily=Times New Roman;fontSize=16;" parent="4swetIxyhp23ioZ733Vt-1" vertex="1">
          <mxGeometry x="636.5" y="396" width="75" height="120" as="geometry" />
        </mxCell>
        <mxCell id="4swetIxyhp23ioZ733Vt-83" style="edgeStyle=orthogonalEdgeStyle;rounded=0;orthogonalLoop=1;jettySize=auto;html=1;exitX=0.5;exitY=0;exitDx=0;exitDy=0;entryX=0.5;entryY=1;entryDx=0;entryDy=0;fontFamily=Times New Roman;fontSize=18;" parent="4swetIxyhp23ioZ733Vt-1" source="4swetIxyhp23ioZ733Vt-59" target="4swetIxyhp23ioZ733Vt-65" edge="1">
          <mxGeometry relative="1" as="geometry" />
        </mxCell>
        <mxCell id="4swetIxyhp23ioZ733Vt-59" value="CRF" style="rounded=0;whiteSpace=wrap;html=1;fontFamily=Times New Roman;fontSize=18;fillColor=#FFFFFF;" parent="4swetIxyhp23ioZ733Vt-1" vertex="1">
          <mxGeometry x="109" y="326" width="610" height="40" as="geometry" />
        </mxCell>
        <mxCell id="4swetIxyhp23ioZ733Vt-90" style="edgeStyle=orthogonalEdgeStyle;rounded=0;orthogonalLoop=1;jettySize=auto;html=1;exitX=0.5;exitY=0;exitDx=0;exitDy=0;entryX=0.5;entryY=1;entryDx=0;entryDy=0;fontFamily=Times New Roman;fontSize=18;" parent="4swetIxyhp23ioZ733Vt-1" source="4swetIxyhp23ioZ733Vt-65" target="4swetIxyhp23ioZ733Vt-84" edge="1">
          <mxGeometry relative="1" as="geometry" />
        </mxCell>
        <mxCell id="4swetIxyhp23ioZ733Vt-65" value="" style="rounded=0;whiteSpace=wrap;html=1;fontFamily=Times New Roman;fontSize=18;fillColor=#FFFFFF;dashed=1;" parent="4swetIxyhp23ioZ733Vt-1" vertex="1">
          <mxGeometry x="109" y="170" width="610" height="120" as="geometry" />
        </mxCell>
        <mxCell id="4swetIxyhp23ioZ733Vt-66" value="" style="rounded=1;whiteSpace=wrap;html=1;fontFamily=Times New Roman;fontSize=18;fillColor=#CCCCCC;" parent="4swetIxyhp23ioZ733Vt-1" vertex="1">
          <mxGeometry x="109" y="200" width="610" height="30" as="geometry" />
        </mxCell>
        <mxCell id="4swetIxyhp23ioZ733Vt-67" value="O" style="text;html=1;strokeColor=none;fillColor=none;align=center;verticalAlign=middle;whiteSpace=wrap;rounded=0;dashed=1;fontFamily=Times New Roman;fontSize=18;" parent="4swetIxyhp23ioZ733Vt-1" vertex="1">
          <mxGeometry x="654" y="177" width="40" height="20" as="geometry" />
        </mxCell>
        <mxCell id="4swetIxyhp23ioZ733Vt-68" value="B-Person" style="text;html=1;strokeColor=none;fillColor=none;align=center;verticalAlign=middle;whiteSpace=wrap;rounded=0;dashed=1;fontFamily=Times New Roman;fontSize=18;" parent="4swetIxyhp23ioZ733Vt-1" vertex="1">
          <mxGeometry x="116.5" y="205" width="75" height="20" as="geometry" />
        </mxCell>
        <mxCell id="4swetIxyhp23ioZ733Vt-69" value="B-Person" style="text;html=1;strokeColor=none;fillColor=none;align=center;verticalAlign=middle;whiteSpace=wrap;rounded=0;dashed=1;fontFamily=Times New Roman;fontSize=18;" parent="4swetIxyhp23ioZ733Vt-1" vertex="1">
          <mxGeometry x="117.5" y="238" width="75" height="20" as="geometry" />
        </mxCell>
        <mxCell id="4swetIxyhp23ioZ733Vt-70" value="I-Person" style="text;html=1;strokeColor=none;fillColor=none;align=center;verticalAlign=middle;whiteSpace=wrap;rounded=0;dashed=1;fontFamily=Times New Roman;fontSize=18;" parent="4swetIxyhp23ioZ733Vt-1" vertex="1">
          <mxGeometry x="235" y="177" width="75" height="20" as="geometry" />
        </mxCell>
        <mxCell id="4swetIxyhp23ioZ733Vt-71" value="I-Person" style="text;html=1;strokeColor=none;fillColor=none;align=center;verticalAlign=middle;whiteSpace=wrap;rounded=0;dashed=1;fontFamily=Times New Roman;fontSize=18;" parent="4swetIxyhp23ioZ733Vt-1" vertex="1">
          <mxGeometry x="235" y="205" width="75" height="20" as="geometry" />
        </mxCell>
        <mxCell id="4swetIxyhp23ioZ733Vt-72" value="I-Organization" style="text;html=1;strokeColor=none;fillColor=none;align=center;verticalAlign=middle;whiteSpace=wrap;rounded=0;dashed=1;fontFamily=Times New Roman;fontSize=18;" parent="4swetIxyhp23ioZ733Vt-1" vertex="1">
          <mxGeometry x="232.5" y="239" width="122.5" height="20" as="geometry" />
        </mxCell>
        <mxCell id="4swetIxyhp23ioZ733Vt-73" value="B-Organization" style="text;html=1;strokeColor=none;fillColor=none;align=center;verticalAlign=middle;whiteSpace=wrap;rounded=0;dashed=1;fontFamily=Times New Roman;fontSize=18;" parent="4swetIxyhp23ioZ733Vt-1" vertex="1">
          <mxGeometry x="482.75" y="205" width="122.5" height="20" as="geometry" />
        </mxCell>
        <mxCell id="4swetIxyhp23ioZ733Vt-74" value="I-Person" style="text;html=1;strokeColor=none;fillColor=none;align=center;verticalAlign=middle;whiteSpace=wrap;rounded=0;dashed=1;fontFamily=Times New Roman;fontSize=18;" parent="4swetIxyhp23ioZ733Vt-1" vertex="1">
          <mxGeometry x="506.5" y="238" width="75" height="20" as="geometry" />
        </mxCell>
        <mxCell id="4swetIxyhp23ioZ733Vt-75" value="O" style="text;html=1;strokeColor=none;fillColor=none;align=center;verticalAlign=middle;whiteSpace=wrap;rounded=0;dashed=1;fontFamily=Times New Roman;fontSize=18;" parent="4swetIxyhp23ioZ733Vt-1" vertex="1">
          <mxGeometry x="654" y="205" width="40" height="20" as="geometry" />
        </mxCell>
        <mxCell id="4swetIxyhp23ioZ733Vt-76" value="O" style="text;html=1;strokeColor=none;fillColor=none;align=center;verticalAlign=middle;whiteSpace=wrap;rounded=0;dashed=1;fontFamily=Times New Roman;fontSize=18;" parent="4swetIxyhp23ioZ733Vt-1" vertex="1">
          <mxGeometry x="654" y="238" width="40" height="20" as="geometry" />
        </mxCell>
        <mxCell id="4swetIxyhp23ioZ733Vt-77" value="O" style="text;html=1;strokeColor=none;fillColor=none;align=center;verticalAlign=middle;whiteSpace=wrap;rounded=0;dashed=1;fontFamily=Times New Roman;fontSize=18;" parent="4swetIxyhp23ioZ733Vt-1" vertex="1">
          <mxGeometry x="524" y="177" width="40" height="20" as="geometry" />
        </mxCell>
        <mxCell id="4swetIxyhp23ioZ733Vt-79" value="O" style="text;html=1;strokeColor=none;fillColor=none;align=center;verticalAlign=middle;whiteSpace=wrap;rounded=0;dashed=1;fontFamily=Times New Roman;fontSize=18;" parent="4swetIxyhp23ioZ733Vt-1" vertex="1">
          <mxGeometry x="394" y="178" width="40" height="20" as="geometry" />
        </mxCell>
        <mxCell id="4swetIxyhp23ioZ733Vt-80" value="O" style="text;html=1;strokeColor=none;fillColor=none;align=center;verticalAlign=middle;whiteSpace=wrap;rounded=0;dashed=1;fontFamily=Times New Roman;fontSize=18;" parent="4swetIxyhp23ioZ733Vt-1" vertex="1">
          <mxGeometry x="394" y="206" width="40" height="20" as="geometry" />
        </mxCell>
        <mxCell id="4swetIxyhp23ioZ733Vt-81" value="O" style="text;html=1;strokeColor=none;fillColor=none;align=center;verticalAlign=middle;whiteSpace=wrap;rounded=0;dashed=1;fontFamily=Times New Roman;fontSize=18;" parent="4swetIxyhp23ioZ733Vt-1" vertex="1">
          <mxGeometry x="394" y="239" width="40" height="20" as="geometry" />
        </mxCell>
        <mxCell id="4swetIxyhp23ioZ733Vt-82" value="......" style="text;html=1;strokeColor=none;fillColor=none;align=center;verticalAlign=middle;whiteSpace=wrap;rounded=0;dashed=1;fontFamily=Times New Roman;fontSize=18;" parent="4swetIxyhp23ioZ733Vt-1" vertex="1">
          <mxGeometry x="395" y="258" width="40" height="20" as="geometry" />
        </mxCell>
        <mxCell id="4swetIxyhp23ioZ733Vt-84" value="" style="rounded=1;whiteSpace=wrap;html=1;fontFamily=Times New Roman;fontSize=18;fillColor=#CCCCCC;" parent="4swetIxyhp23ioZ733Vt-1" vertex="1">
          <mxGeometry x="109" y="111" width="610" height="30" as="geometry" />
        </mxCell>
        <mxCell id="4swetIxyhp23ioZ733Vt-85" value="B-Person" style="text;html=1;strokeColor=none;fillColor=none;align=center;verticalAlign=middle;whiteSpace=wrap;rounded=0;dashed=1;fontFamily=Times New Roman;fontSize=18;" parent="4swetIxyhp23ioZ733Vt-1" vertex="1">
          <mxGeometry x="117.5" y="115.5" width="75" height="20" as="geometry" />
        </mxCell>
        <mxCell id="4swetIxyhp23ioZ733Vt-86" value="I-Person" style="text;html=1;strokeColor=none;fillColor=none;align=center;verticalAlign=middle;whiteSpace=wrap;rounded=0;dashed=1;fontFamily=Times New Roman;fontSize=18;" parent="4swetIxyhp23ioZ733Vt-1" vertex="1">
          <mxGeometry x="236" y="115.5" width="75" height="20" as="geometry" />
        </mxCell>
        <mxCell id="4swetIxyhp23ioZ733Vt-87" value="B-Organization" style="text;html=1;strokeColor=none;fillColor=none;align=center;verticalAlign=middle;whiteSpace=wrap;rounded=0;dashed=1;fontFamily=Times New Roman;fontSize=18;" parent="4swetIxyhp23ioZ733Vt-1" vertex="1">
          <mxGeometry x="483.75" y="115.5" width="122.5" height="20" as="geometry" />
        </mxCell>
        <mxCell id="4swetIxyhp23ioZ733Vt-88" value="O" style="text;html=1;strokeColor=none;fillColor=none;align=center;verticalAlign=middle;whiteSpace=wrap;rounded=0;dashed=1;fontFamily=Times New Roman;fontSize=18;" parent="4swetIxyhp23ioZ733Vt-1" vertex="1">
          <mxGeometry x="655" y="115.5" width="40" height="20" as="geometry" />
        </mxCell>
        <mxCell id="4swetIxyhp23ioZ733Vt-89" value="O" style="text;html=1;strokeColor=none;fillColor=none;align=center;verticalAlign=middle;whiteSpace=wrap;rounded=0;dashed=1;fontFamily=Times New Roman;fontSize=18;" parent="4swetIxyhp23ioZ733Vt-1" vertex="1">
          <mxGeometry x="395" y="116.5" width="40" height="20" as="geometry" />
        </mxCell>
        <mxCell id="4swetIxyhp23ioZ733Vt-91" value="0.2" style="text;html=1;strokeColor=none;fillColor=none;align=center;verticalAlign=middle;whiteSpace=wrap;rounded=0;fontFamily=Times New Roman;fontSize=18;" parent="4swetIxyhp23ioZ733Vt-1" vertex="1">
          <mxGeometry x="60" y="177" width="40" height="20" as="geometry" />
        </mxCell>
        <mxCell id="4swetIxyhp23ioZ733Vt-92" value="0.9" style="text;html=1;strokeColor=none;fillColor=none;align=center;verticalAlign=middle;whiteSpace=wrap;rounded=0;fontFamily=Times New Roman;fontSize=18;" parent="4swetIxyhp23ioZ733Vt-1" vertex="1">
          <mxGeometry x="60" y="206" width="40" height="20" as="geometry" />
        </mxCell>
        <mxCell id="4swetIxyhp23ioZ733Vt-93" value="0.3" style="text;html=1;strokeColor=none;fillColor=none;align=center;verticalAlign=middle;whiteSpace=wrap;rounded=0;fontFamily=Times New Roman;fontSize=18;" parent="4swetIxyhp23ioZ733Vt-1" vertex="1">
          <mxGeometry x="60" y="239" width="40" height="20" as="geometry" />
        </mxCell>
        <mxCell id="4swetIxyhp23ioZ733Vt-94" value="......" style="text;html=1;strokeColor=none;fillColor=none;align=center;verticalAlign=middle;whiteSpace=wrap;rounded=0;dashed=1;fontFamily=Times New Roman;fontSize=18;" parent="4swetIxyhp23ioZ733Vt-1" vertex="1">
          <mxGeometry x="60" y="259" width="40" height="20" as="geometry" />
        </mxCell>
        <mxCell id="4swetIxyhp23ioZ733Vt-95" value="W&lt;sub style=&quot;font-size: 14px;&quot;&gt;0&lt;/sub&gt;" style="text;html=1;strokeColor=none;fillColor=none;align=center;verticalAlign=middle;whiteSpace=wrap;rounded=0;fontFamily=Times New Roman;fontSize=14;" parent="4swetIxyhp23ioZ733Vt-1" vertex="1">
          <mxGeometry x="135" y="660" width="40" height="20" as="geometry" />
        </mxCell>
        <mxCell id="4swetIxyhp23ioZ733Vt-96" value="W&lt;sub&gt;1&lt;/sub&gt;" style="text;html=1;strokeColor=none;fillColor=none;align=center;verticalAlign=middle;whiteSpace=wrap;rounded=0;fontFamily=Times New Roman;fontSize=14;" parent="4swetIxyhp23ioZ733Vt-1" vertex="1">
          <mxGeometry x="273.75" y="660" width="40" height="20" as="geometry" />
        </mxCell>
        <mxCell id="4swetIxyhp23ioZ733Vt-97" value="W&lt;sub&gt;2&lt;/sub&gt;" style="text;html=1;strokeColor=none;fillColor=none;align=center;verticalAlign=middle;whiteSpace=wrap;rounded=0;fontFamily=Times New Roman;fontSize=14;" parent="4swetIxyhp23ioZ733Vt-1" vertex="1">
          <mxGeometry x="399" y="660" width="40" height="20" as="geometry" />
        </mxCell>
        <mxCell id="4swetIxyhp23ioZ733Vt-98" value="W&lt;sub&gt;3&lt;/sub&gt;" style="text;html=1;strokeColor=none;fillColor=none;align=center;verticalAlign=middle;whiteSpace=wrap;rounded=0;fontFamily=Times New Roman;fontSize=14;" parent="4swetIxyhp23ioZ733Vt-1" vertex="1">
          <mxGeometry x="524" y="660" width="40" height="20" as="geometry" />
        </mxCell>
        <mxCell id="4swetIxyhp23ioZ733Vt-100" value="W&lt;sub&gt;4&lt;/sub&gt;" style="text;html=1;strokeColor=none;fillColor=none;align=center;verticalAlign=middle;whiteSpace=wrap;rounded=0;fontFamily=Times New Roman;fontSize=14;" parent="4swetIxyhp23ioZ733Vt-1" vertex="1">
          <mxGeometry x="655" y="660" width="40" height="20" as="geometry" />
        </mxCell>
        <mxCell id="4swetIxyhp23ioZ733Vt-101" value="B-Person" style="text;html=1;strokeColor=none;fillColor=none;align=left;verticalAlign=middle;whiteSpace=wrap;rounded=0;dashed=1;fontFamily=Times New Roman;fontSize=18;" parent="4swetIxyhp23ioZ733Vt-1" vertex="1">
          <mxGeometry x="1" y="410" width="75" height="20" as="geometry" />
        </mxCell>
        <mxCell id="4swetIxyhp23ioZ733Vt-103" value="I-Person" style="text;html=1;strokeColor=none;fillColor=none;align=left;verticalAlign=middle;whiteSpace=wrap;rounded=0;dashed=1;fontFamily=Times New Roman;fontSize=18;" parent="4swetIxyhp23ioZ733Vt-1" vertex="1">
          <mxGeometry x="1" y="430" width="75" height="20" as="geometry" />
        </mxCell>
        <mxCell id="4swetIxyhp23ioZ733Vt-104" value="B-Organization" style="text;html=1;strokeColor=none;fillColor=none;align=left;verticalAlign=middle;whiteSpace=wrap;rounded=0;dashed=1;fontFamily=Times New Roman;fontSize=18;" parent="4swetIxyhp23ioZ733Vt-1" vertex="1">
          <mxGeometry x="1" y="450" width="122.5" height="20" as="geometry" />
        </mxCell>
        <mxCell id="4swetIxyhp23ioZ733Vt-105" value="I-Organization" style="text;html=1;strokeColor=none;fillColor=none;align=left;verticalAlign=middle;whiteSpace=wrap;rounded=0;dashed=1;fontFamily=Times New Roman;fontSize=18;" parent="4swetIxyhp23ioZ733Vt-1" vertex="1">
          <mxGeometry x="1" y="470" width="122.5" height="20" as="geometry" />
        </mxCell>
        <mxCell id="4swetIxyhp23ioZ733Vt-106" value="O" style="text;html=1;strokeColor=none;fillColor=none;align=left;verticalAlign=middle;whiteSpace=wrap;rounded=0;dashed=1;fontFamily=Times New Roman;fontSize=18;" parent="4swetIxyhp23ioZ733Vt-1" vertex="1">
          <mxGeometry x="1" y="490" width="40" height="20" as="geometry" />
        </mxCell>
      </root>
    </mxGraphModel>
  </diagram>
  <diagram id="nOr2Nq0-_mwC8usbLTX6" name="Page-5">
    <mxGraphModel dx="782" dy="478" grid="1" gridSize="10" guides="1" tooltips="1" connect="1" arrows="1" fold="1" page="1" pageScale="1" pageWidth="827" pageHeight="1169" math="0" shadow="0">
      <root>
        <mxCell id="Y093Bb4H-RRKq2MnaBRq-0" />
        <mxCell id="Y093Bb4H-RRKq2MnaBRq-1" parent="Y093Bb4H-RRKq2MnaBRq-0" />
        <mxCell id="Y093Bb4H-RRKq2MnaBRq-7" style="edgeStyle=orthogonalEdgeStyle;rounded=0;orthogonalLoop=1;jettySize=auto;html=1;exitX=0.5;exitY=1;exitDx=0;exitDy=0;entryX=0.5;entryY=0;entryDx=0;entryDy=0;fontSize=18;" edge="1" parent="Y093Bb4H-RRKq2MnaBRq-1" source="Y093Bb4H-RRKq2MnaBRq-2" target="Y093Bb4H-RRKq2MnaBRq-3">
          <mxGeometry relative="1" as="geometry" />
        </mxCell>
        <mxCell id="Y093Bb4H-RRKq2MnaBRq-8" style="edgeStyle=orthogonalEdgeStyle;rounded=0;orthogonalLoop=1;jettySize=auto;html=1;entryX=0.5;entryY=0;entryDx=0;entryDy=0;fontSize=18;" edge="1" parent="Y093Bb4H-RRKq2MnaBRq-1" source="Y093Bb4H-RRKq2MnaBRq-2" target="Y093Bb4H-RRKq2MnaBRq-4">
          <mxGeometry relative="1" as="geometry" />
        </mxCell>
        <mxCell id="Y093Bb4H-RRKq2MnaBRq-9" style="edgeStyle=orthogonalEdgeStyle;rounded=0;orthogonalLoop=1;jettySize=auto;html=1;entryX=0.5;entryY=0;entryDx=0;entryDy=0;fontSize=18;" edge="1" parent="Y093Bb4H-RRKq2MnaBRq-1" source="Y093Bb4H-RRKq2MnaBRq-2" target="Y093Bb4H-RRKq2MnaBRq-5">
          <mxGeometry relative="1" as="geometry" />
        </mxCell>
        <mxCell id="Y093Bb4H-RRKq2MnaBRq-10" style="edgeStyle=orthogonalEdgeStyle;rounded=0;orthogonalLoop=1;jettySize=auto;html=1;fontSize=18;exitX=0.5;exitY=1;exitDx=0;exitDy=0;" edge="1" parent="Y093Bb4H-RRKq2MnaBRq-1" source="Y093Bb4H-RRKq2MnaBRq-2" target="Y093Bb4H-RRKq2MnaBRq-6">
          <mxGeometry relative="1" as="geometry" />
        </mxCell>
        <mxCell id="Y093Bb4H-RRKq2MnaBRq-2" value="地图浏览" style="rounded=0;whiteSpace=wrap;html=1;fontSize=18;" vertex="1" parent="Y093Bb4H-RRKq2MnaBRq-1">
          <mxGeometry x="320" y="300" width="120" height="40" as="geometry" />
        </mxCell>
        <mxCell id="Y093Bb4H-RRKq2MnaBRq-3" value="目录浏览" style="rounded=1;whiteSpace=wrap;html=1;fontSize=18;" vertex="1" parent="Y093Bb4H-RRKq2MnaBRq-1">
          <mxGeometry x="140" y="390" width="90" height="30" as="geometry" />
        </mxCell>
        <mxCell id="Y093Bb4H-RRKq2MnaBRq-4" value="图组浏览" style="rounded=1;whiteSpace=wrap;html=1;fontSize=18;" vertex="1" parent="Y093Bb4H-RRKq2MnaBRq-1">
          <mxGeometry x="250" y="390" width="90" height="30" as="geometry" />
        </mxCell>
        <mxCell id="Y093Bb4H-RRKq2MnaBRq-5" value="地图缩放与平移" style="rounded=1;whiteSpace=wrap;html=1;fontSize=18;" vertex="1" parent="Y093Bb4H-RRKq2MnaBRq-1">
          <mxGeometry x="360" y="390" width="131.5" height="30" as="geometry" />
        </mxCell>
        <mxCell id="Y093Bb4H-RRKq2MnaBRq-6" value="地图定制入口" style="rounded=1;whiteSpace=wrap;html=1;fontSize=18;" vertex="1" parent="Y093Bb4H-RRKq2MnaBRq-1">
          <mxGeometry x="510" y="390" width="131.5" height="30" as="geometry" />
        </mxCell>
      </root>
    </mxGraphModel>
  </diagram>
  <diagram id="x7FGz9AHZ1O-zFubCkCj" name="Page-6">
    <mxGraphModel dx="782" dy="422" grid="1" gridSize="10" guides="1" tooltips="1" connect="1" arrows="1" fold="1" page="1" pageScale="1" pageWidth="827" pageHeight="1169" math="0" shadow="0">
      <root>
        <mxCell id="IGM7XArye1vN5fVzjItP-0" />
        <mxCell id="IGM7XArye1vN5fVzjItP-1" parent="IGM7XArye1vN5fVzjItP-0" />
        <mxCell id="IGM7XArye1vN5fVzjItP-2" value="" style="rounded=0;whiteSpace=wrap;html=1;fontSize=18;fontColor=#FFFFFF;" vertex="1" parent="IGM7XArye1vN5fVzjItP-1">
          <mxGeometry x="70" y="30" width="680" height="450" as="geometry" />
        </mxCell>
        <mxCell id="IGM7XArye1vN5fVzjItP-3" value="查 询 框" style="rounded=1;whiteSpace=wrap;html=1;fontSize=18;shadow=0;fillColor=#3399FF;fontColor=#FFFFFF;" vertex="1" parent="IGM7XArye1vN5fVzjItP-1">
          <mxGeometry x="260" y="50" width="280" height="30" as="geometry" />
        </mxCell>
        <mxCell id="IGM7XArye1vN5fVzjItP-5" value="页面切换选框" style="rounded=0;whiteSpace=wrap;html=1;shadow=0;fontSize=18;fontColor=#FFFFFF;fillColor=#3399FF;" vertex="1" parent="IGM7XArye1vN5fVzjItP-1">
          <mxGeometry x="700" y="219" width="40" height="120" as="geometry" />
        </mxCell>
        <mxCell id="IGM7XArye1vN5fVzjItP-6" value="图&amp;nbsp; &amp;nbsp;组&amp;nbsp; &amp;nbsp;目&amp;nbsp; &amp;nbsp;录&amp;nbsp; 栏" style="rounded=0;whiteSpace=wrap;html=1;shadow=0;fontSize=18;fontColor=#FFFFFF;fillColor=#3399FF;" vertex="1" parent="IGM7XArye1vN5fVzjItP-1">
          <mxGeometry x="133" y="90" width="550" height="40" as="geometry" />
        </mxCell>
        <mxCell id="IGM7XArye1vN5fVzjItP-7" value="图组轮播区" style="rounded=0;whiteSpace=wrap;html=1;shadow=0;fontSize=18;fontColor=#FFFFFF;fillColor=#3399FF;" vertex="1" parent="IGM7XArye1vN5fVzjItP-1">
          <mxGeometry x="130" y="180" width="550" height="264" as="geometry" />
        </mxCell>
        <mxCell id="IGM7XArye1vN5fVzjItP-8" value="地图定制" style="rounded=1;whiteSpace=wrap;html=1;shadow=0;fontSize=18;fontColor=#FFFFFF;fillColor=#3399FF;" vertex="1" parent="IGM7XArye1vN5fVzjItP-1">
          <mxGeometry x="500" y="140" width="80" height="30" as="geometry" />
        </mxCell>
      </root>
    </mxGraphModel>
  </diagram>
</mxfile>
